PathFileType        4      (X/Y/Z)      Static.trc         
DataRate	CameraRate	NumFrames	NumMarkers	Units	OrigDataRate	OrigDataStartFrame	OrigNumFrames
100.0	100.0	4	37	mm	100.0	67	267
Frame#	Time	T2			T10			MANU			LASI			RASI			SACR			LTHI			LKAX			LKD1			LKD2			LKNE			LTIB			LANK			LMED			LHEE			LTOE			LD1M			LD5M			RTHI			RKAX			RKD1			RKD2			RKNE			RTIB			RANK			RMED			RHEE			RTOE			RD1M			RD5M			RHJC			LHJC			RKJC			LKJC			MASI			RAJC			LAJC			
		X1	Y1	Z1	X2	Y2	Z2	X3	Y3	Z3	X4	Y4	Z4	X5	Y5	Z5	X6	Y6	Z6	X7	Y7	Z7	X8	Y8	Z8	X9	Y9	Z9	X10	Y10	Z10	X11	Y11	Z11	X12	Y12	Z12	X13	Y13	Z13	X14	Y14	Z14	X15	Y15	Z15	X16	Y16	Z16	X17	Y17	Z17	X18	Y18	Z18	X19	Y19	Z19	X20	Y20	Z20	X21	Y21	Z21	X22	Y22	Z22	X23	Y23	Z23	X24	Y24	Z24	X25	Y25	Z25	X26	Y26	Z26	X27	Y27	Z27	X28	Y28	Z28	X29	Y29	Z29	X30	Y30	Z30	X31	Y31	Z31	X32	Y32	Z32	X33	Y33	Z33	X34	Y34	Z34	X35	Y35	Z35	X36	Y36	Z36	X37	Y37	Z37	
67	0.66	269.58035	1100.9993	-10.46902	283.85967	916.00679	-5.23658	382.12316	1083.08375	1.06844	437.57987	723.09313	-75.90643	435.56799	737.52694	96.27105	298.56901	767.87261	1.21256	395.6915	430.88767	-156.62808	391.73574	380.00176	-217.3518	481.97529	390.22626	-121.45625	412.76804	278.80068	-136.90068	391.14611	368.44228	-125.11265	320.93564	159.03213	-183.5142	295.31988	68.59579	-145.35713	315.99877	71.43463	-71.02198	245.48177	20.46247	-109.67117	421.83343	30.74159	-134.79537	416.82932	16.19869	-84.78402	381.49076	17.53483	-175.94166	404.91922	447.00118	167.68583	408.84693	355.46443	227.38528	483.53259	412.56719	122.82063	455.20659	283.69056	121.31285	402.16564	361.23568	129.40408	308.18293	148.50788	156.02878	293.63345	62.16144	111.85243	321.91408	69.28071	39.21114	250.87258	19.56848	68.24108	423.75815	28.60906	108.14681	414.11385	13.98215	52.69344	384.01176	15.46583	147.42826	376.41567	687.13298	77.65068	377.9135	676.38709	-50.53444	398.93971	364.02222	82.09574	390.84801	362.59804	-78.47837	436.57393	730.31003	10.18231	305.31229	57.66694	75.35456	303.35923	62.11548	-108.99176	
68	0.67	269.70019	1101.04553	-10.52166	284.01337	916.04938	-5.30615	382.24925	1083.13121	1.01585	437.6763	723.0977	-75.93944	435.69686	737.56246	96.23867	298.6728	767.97385	1.19176	395.68405	430.93624	-156.65168	391.58708	380.05774	-217.37881	481.87757	390.26214	-121.55295	412.66333	278.85442	-136.96001	391.05636	368.4873	-125.15068	320.82022	159.08948	-183.52354	295.29311	68.60823	-145.37257	316.00437	71.44677	-71.048	245.48968	20.46958	-109.66889	421.83327	30.74041	-134.80682	416.82183	16.20991	-84.78925	381.49653	17.52957	-175.96149	404.83836	447.04921	167.68262	408.68027	355.52235	227.37921	483.38333	412.64602	122.83673	455.06849	283.75884	121.32385	402.01944	361.29917	129.40053	308.13091	148.53901	156.02699	293.61898	62.17197	111.85527	321.91073	69.30552	39.23014	250.87496	19.57278	68.243	423.74954	28.60894	108.1505	414.11588	13.98888	52.69336	384.00591	15.46898	147.43153	376.50752	687.19847	77.63477	377.9812	676.42956	-50.55058	398.80327	364.0885	82.09169	390.78801	362.6369	-78.51699	436.68658	730.33008	10.14961	305.30682	57.6833	75.36588	303.34998	62.12704	-109.01201	
69	0.68	269.82411	1101.09537	-10.57764	284.17178	916.09356	-5.37853	382.37596	1083.18232	0.96076	437.77158	723.10422	-75.97208	435.82234	737.60164	96.20658	298.77808	768.07935	1.17653	395.66912	430.98778	-156.68711	391.3949	380.12326	-217.40871	481.76231	390.30871	-121.68026	412.53249	278.9132	-137.0337	390.94656	368.54046	-125.19345	320.68607	159.15165	-183.53546	295.26141	68.61948	-145.38769	316.01156	71.46153	-71.07481	245.49613	20.47419	-109.6662	421.83062	30.73718	-134.82258	416.81476	16.22237	-84.79524	381.49997	17.52156	-175.98422	404.7385	447.10486	167.68285	408.49517	355.58246	227.3805	483.21198	412.73615	122.85672	454.91624	283.83329	121.33758	401.85253	361.3667	129.40196	308.07189	148.56876	156.02689	293.60299	62.18192	111.86154	321.90223	69.33041	39.24932	250.87937	19.57184	68.24667	423.73955	28.60909	108.15493	414.1142	13.9944	52.69503	384.0001	15.47209	147.43542	376.59643	687.26797	77.61883	378.04763	676.47477	-50.56668	398.64511	364.15964	82.09274	390.71984	362.68306	-78.56042	436.79696	730.35293	10.11725	305.29851	57.69927	75.37892	303.33923	62.13915	-109.03236	
70	0.69	269.95633	1101.14918	-10.63793	284.33141	916.1401	-5.45269	382.50553	1083.23435	0.90159	437.86294	723.11147	-76.00463	435.93915	737.64112	96.17294	298.88144	768.18718	1.16568	395.64027	431.04068	-156.73342	391.16355	380.19583	-217.44143	481.63086	390.36209	-121.83336	412.37779	278.97287	-137.11874	390.81777	368.59849	-125.23939	320.54251	159.21442	-183.55078	295.22598	68.62851	-145.40222	316.02075	71.47676	-71.10258	245.50164	20.4757	-109.66403	421.82565	30.73178	-134.84193	416.80981	16.23618	-84.80213	381.50076	17.51055	-176.00944	404.62685	447.16689	167.68526	408.29918	355.64591	227.38919	483.02589	412.834	122.87935	454.75781	283.91134	121.35617	401.67282	361.43565	129.40834	308.0092	148.59568	156.02871	293.58841	62.18959	111.87055	321.88905	69.35192	39.2664	250.88599	19.56617	68.25249	423.73065	28.6098	108.15908	414.10917	13.99708	52.69833	383.99598	15.47461	147.43862	376.67755	687.33893	77.59979	378.10979	676.52174	-50.5848	398.47331	364.23119	82.09874	390.64289	362.733	-78.60715	436.90104	730.3763	10.08415	305.2889	57.71232	75.39216	303.32784	62.15027	-109.05282	
